HIERARCHY
ROOT hip
{
	OFFSET 0.000000 0.000000 0.000000 
	CHANNELS 6 Xposition Yposition Zposition Xrotation Zrotation Yrotation
	JOINT abdomen
	{
		OFFSET 0.000000 3.402643 0.000000 
		CHANNELS 3 Xrotation Zrotation Yrotation
		JOINT chest
		{
			OFFSET 0.000000 8.438565 -0.680529 
			CHANNELS 3 Xrotation Zrotation Yrotation
			JOINT neck
			{
				OFFSET 0.000000 10.207942 -0.272212 
				CHANNELS 3 Xrotation Zrotation Yrotation
				JOINT head
				{
					OFFSET 0.000000 3.130431 0.000000 
					CHANNELS 3 Xrotation Zrotation Yrotation
					End Site
					{
						OFFSET 0.000000 3.130435 0.000000 
					}
				}
			}
			JOINT lCollar
			{
				OFFSET 3.470700 6.669187 -0.816635 
				CHANNELS 3 Yrotation Zrotation Xrotation
				JOINT lShldr
				{
					OFFSET 3.198488 0.000000 0.000000 
					CHANNELS 3 Zrotation Yrotation Xrotation
					JOINT lForeArm
					{
						OFFSET 10.139888 0.000000 0.000000 
						CHANNELS 3 Yrotation Zrotation Xrotation
						JOINT lHand
						{
							OFFSET 8.370511 0.000000 0.000000 
							CHANNELS 3 Zrotation Yrotation Xrotation
							End Site
							{
								OFFSET 4.083176 0.000000 0.000000 
							}
						}
					}
				}
			}
			JOINT rCollar
			{
				OFFSET -3.470700 6.669187 -0.816635 
				CHANNELS 3 Yrotation Zrotation Xrotation
				JOINT rShldr
				{
					OFFSET -3.198488 0.000000 0.000000 
					CHANNELS 3 Zrotation Yrotation Xrotation
					JOINT rForeArm
					{
						OFFSET -10.139888 0.000000 0.000000 
						CHANNELS 3 Yrotation Zrotation Xrotation
						JOINT rHand
						{
							OFFSET -8.370511 0.000000 0.000000 
							CHANNELS 3 Zrotation Yrotation Xrotation
							End Site
							{
								OFFSET -4.083176 0.000000 0.000000 
							}
						}
					}
				}
			}
		}
	}
	JOINT lThigh
	{
		OFFSET 5.308129 -1.633274 1.361059 
		CHANNELS 3 Xrotation Zrotation Yrotation
		JOINT lShin
		{
			OFFSET -2.041588 -20.007561 0.000000 
			CHANNELS 3 Xrotation Zrotation Yrotation
			JOINT lFoot
			{
				OFFSET 0.000000 -19.190928 -1.224953 
				CHANNELS 3 Xrotation Yrotation Zrotation
				End Site
				{
					OFFSET 0.000000 -2.449906 4.627600 
				}
			}
		}
	}
	JOINT rThigh
	{
		OFFSET -5.308129 -1.633274 1.361059 
		CHANNELS 3 Xrotation Zrotation Yrotation
		JOINT rShin
		{
			OFFSET 2.041588 -20.007561 0.000000 
			CHANNELS 3 Xrotation Zrotation Yrotation
			JOINT rFoot
			{
				OFFSET 0.000000 -19.190928 -1.224953 
				CHANNELS 3 Xrotation Yrotation Zrotation
				End Site
				{
					OFFSET 0.000000 -2.449906 4.627600 
				}
			}
		}
	}
}
MOTION
Frames: 16
Frame Time: 0.033333
-1.311303 51.432800 2.738396 -0.823202 0.605462 -0.273422 0.000000 0.000000 0.000000 -8.504961 -1.904058 -0.909000 32.145866 6.033973 -1.138854 -26.039433 -5.273725 3.441930 -3.521967 9.154817 6.304141 -36.494587 17.151100 -45.368427 -18.619671 7.160067 8.460581 -2.086668 -1.522260 -7.389331 3.089181 -14.089146 8.026228 41.426460 -5.632434 -39.192825 10.531491 -9.228908 58.847839 -16.603710 -10.954350 -8.889245 -4.049706 8.018179 10.527960 14.765163 -1.065981 -10.874141 -3.353851 0.654971 -6.784346 0.945310 -5.141479 -13.525959 6.480813 1.237151 -1.970073 -4.787785 0.061751 -1.639772 
-1.321436 51.454082 2.688568 -0.832408 0.683590 -0.195299 0.000000 0.000000 0.000000 -8.432495 -2.011426 -0.977332 32.270878 6.405098 -1.090291 -26.291719 -5.438354 3.629389 -3.521967 9.154817 6.304141 -36.341999 17.223932 -44.757050 -18.337011 6.922022 8.221471 -2.147815 -1.736402 -7.369674 3.089181 -14.089146 8.026228 41.461830 -5.461623 -39.187527 10.590674 -9.244780 58.843113 -16.828661 -10.751322 -8.914639 -3.942902 7.931751 10.525581 14.396842 -1.136334 -10.942697 -3.284371 0.646839 -6.733703 0.906858 -5.251153 -13.633636 6.476053 1.294593 -1.880094 -4.345255 0.050932 -1.419629 
-1.349816 51.459759 2.620772 -0.870764 0.634764 -0.146475 0.000000 0.000000 0.000000 -8.189028 -1.991904 -0.967570 32.207279 6.268445 -1.069817 -26.356102 -5.195201 3.539186 -3.521967 9.154817 6.304141 -36.356682 17.103725 -44.801746 -18.284908 6.834539 7.314558 -2.380606 -1.539352 -7.353064 3.089181 -14.089146 8.026228 41.474556 -5.334110 -39.222839 10.542142 -9.253709 58.662376 -17.124483 -10.387813 -8.945516 -3.982795 8.002897 10.488713 14.358047 -1.075370 -11.031940 -3.104813 0.658721 -6.958018 0.848225 -5.152450 -13.518758 6.486713 1.255775 -1.959197 -4.247156 0.026563 -1.365932 
-1.352136 51.460228 2.571445 -1.074810 0.693359 -0.048825 0.000000 0.000000 0.000000 -7.872738 -2.069974 -1.035891 31.912905 6.043950 -1.031001 -26.112877 -5.020225 3.449934 -3.521967 9.154817 6.304141 -36.359875 17.008142 -44.941368 -18.226513 6.759609 6.437471 -3.172933 -1.440237 -7.264508 3.089181 -14.089146 8.026228 41.476387 -5.247361 -39.090496 10.486108 -9.214598 58.671925 -17.382227 -10.118793 -8.973332 -3.768315 7.945081 10.536765 14.191938 -1.106924 -10.969101 -3.030953 0.644113 -6.952075 1.043221 -5.209930 -13.627952 6.462310 1.286212 -2.008139 -4.239669 0.021830 -1.304341 
-1.362919 51.464939 2.451324 -0.859744 0.722656 -0.029295 0.000000 0.000000 0.000000 -7.931510 -2.079745 -1.026133 31.823187 5.975546 -1.060139 -25.983368 -4.942692 3.361540 -3.521967 9.154817 6.304141 -36.323830 16.849060 -44.784557 -18.112251 6.692385 6.317328 -3.485370 -1.389111 -7.223138 3.089181 -14.089146 8.026228 41.476799 -5.144123 -38.815254 10.423395 -9.129094 58.913700 -18.169115 -10.092956 -8.978141 -4.197980 7.935547 10.426728 14.288702 -1.097375 -11.021290 -2.938802 0.639457 -7.036755 0.642515 -5.207773 -13.516975 6.468500 1.226742 -2.127202 -3.924176 0.020126 -1.102679 
-1.360227 51.399685 2.366530 -0.781560 0.605469 -0.029295 0.000000 0.000000 0.000000 -7.848422 -1.864952 -0.996837 31.982529 6.219606 -1.079533 -26.116804 -5.273177 3.540069 -3.521967 9.154817 6.304141 -36.277355 16.711594 -44.694092 -18.130163 6.731432 6.534584 -3.632320 -1.162160 -7.235559 3.089181 -14.089146 8.026228 41.305359 -5.072217 -39.002857 10.482117 -9.188959 59.701504 -18.606094 -10.452597 -8.950157 -3.406319 7.952137 10.725054 12.575473 -1.523815 -10.863112 -4.208171 0.454252 -4.299394 0.468455 -5.116594 -13.444430 6.453402 1.247349 -2.097965 -3.972444 0.012641 -1.105985 
-1.372958 51.447933 2.267934 -0.927987 0.742187 -0.019530 0.000000 0.000000 0.000000 -7.503561 -2.021173 -1.006611 31.868212 5.985421 -1.000846 -26.016602 -5.117386 3.510015 -3.521967 9.154817 6.304141 -36.187080 16.598326 -44.445305 -18.074522 6.680346 6.658035 -4.107273 -0.835930 -7.204798 3.089181 -14.089146 8.026228 41.437485 -4.849645 -38.865364 10.520934 -9.178108 59.660568 -18.618792 -10.333048 -8.961431 -4.002447 7.885765 10.445380 13.578969 -1.213926 -10.941443 -2.995136 0.625712 -6.547683 0.506429 -5.228249 -13.550447 6.469540 1.266066 -2.096352 -3.894672 0.007082 -1.076291 
-1.392494 51.472065 2.195765 -1.045052 0.761719 -0.009765 0.000000 0.000000 0.000000 -7.178138 -2.079719 -1.065169 32.034824 5.790254 -0.931867 -26.194061 -5.087931 3.548923 -3.521967 9.154817 6.304141 -35.989098 16.528723 -44.227314 -18.008175 6.620374 6.849121 -3.795210 -1.043997 -7.221976 3.089181 -14.089146 8.026228 41.478325 -4.671446 -38.611053 10.503841 -9.120655 59.536995 -18.653954 -10.198419 -8.974224 -4.187078 7.951866 10.436911 13.940028 -1.145711 -11.117215 -2.665520 0.649734 -7.291121 0.535494 -5.246277 -13.590628 6.458777 1.304876 -2.017258 -3.756335 -0.026127 -1.026197 
-1.393914 51.465904 2.091771 -1.055427 0.722656 -0.058589 0.000000 0.000000 0.000000 -6.946056 -2.030925 -1.026131 32.107010 5.790154 -0.991148 -26.158091 -5.166015 3.529465 -3.521967 9.154817 6.304141 -35.811016 16.326694 -44.012764 -18.026808 6.621153 7.159158 -3.461212 -1.112188 -7.260210 3.089181 -14.089146 8.026228 41.437622 -4.475895 -38.812984 10.573528 -9.183587 59.632973 -18.700315 -10.056258 -8.990495 -4.062481 7.997910 10.547434 13.550303 -1.231122 -10.883307 -2.766675 0.633197 -6.888649 0.409086 -5.238166 -13.592246 6.468424 1.334176 -1.898500 -3.486567 -0.024087 -0.908137 
-1.397138 51.468273 1.993403 -1.162109 0.771484 0.000000 0.000000 0.000000 0.000000 -6.699623 -2.079719 -1.065170 32.063976 5.682646 -1.049456 -25.938108 -4.923487 3.303165 -3.521967 9.154817 6.304141 -35.680111 16.010107 -43.961552 -18.169386 6.723983 7.789286 -3.193305 -0.971635 -7.300839 3.089181 -14.089146 8.026228 41.424980 -4.326729 -38.968838 10.704260 -9.262226 59.766109 -18.669165 -9.854731 -9.004725 -4.051190 7.924738 10.456332 13.377975 -1.204756 -10.813977 -2.525906 0.640000 -7.092338 0.380342 -5.283047 -13.615757 6.453388 1.325503 -1.987552 -3.410936 -0.024484 -0.834105 
-1.422786 51.463539 1.896834 -1.239222 0.742187 0.078245 0.000000 0.000000 0.000000 -6.389083 -2.128399 -1.250951 32.214828 5.975565 -1.050426 -25.856899 -5.234409 3.500281 -3.521967 9.154817 6.304141 -35.433453 15.891967 -43.656750 -18.139147 6.634697 7.675288 -3.208745 -1.081731 -7.294310 3.089181 -14.089146 8.026228 41.452461 -4.067076 -38.645214 10.688429 -9.168859 59.935913 -18.636877 -9.965336 -9.009333 -4.147613 8.019134 10.537416 13.536102 -1.241407 -11.000530 -2.628512 0.634383 -7.054288 0.350196 -5.197693 -13.550992 6.456473 1.294513 -2.173893 -3.419813 -0.045414 -0.811103 
-1.448467 51.457855 1.805797 -1.415044 0.712890 0.078240 0.000000 0.000000 0.000000 -5.915278 -2.157588 -1.368424 32.130997 5.809595 -1.039724 -25.812481 -5.205382 3.461383 -3.521967 9.154817 6.304141 -35.427147 15.733324 -43.579475 -18.397005 6.762903 8.063632 -4.161834 -0.950076 -7.186260 3.089181 -14.089146 8.026228 41.694515 -3.735209 -38.809540 10.870420 -9.254075 60.715786 -18.322884 -9.955362 -8.997797 -4.140550 8.104516 10.609495 13.678032 -1.282171 -11.069714 -2.630086 0.620557 -7.059909 0.429186 -5.124530 -13.435925 6.452611 1.208065 -2.138560 -3.314856 -0.040098 -0.745216 
-1.455015 51.444141 1.707697 -1.579754 0.742184 0.175893 0.000000 0.000000 0.000000 -5.330427 -2.352746 -1.466415 31.367750 6.063516 -1.010547 -25.315359 -5.331319 3.599310 -3.521967 9.154817 6.304141 -35.353123 15.562344 -42.926273 -18.586451 6.755996 7.961400 -8.198798 -0.855578 -6.734313 3.089181 -14.089146 8.026228 42.418335 -3.447520 -39.529015 11.304661 -9.505854 60.979923 -17.695419 -9.496737 -9.033375 -4.121334 8.085848 10.568372 13.697960 -1.250689 -11.126021 -2.413545 0.607870 -7.229502 0.486501 -5.178334 -13.547098 6.479675 1.305252 -2.045518 -3.341448 -0.024580 -0.855059 
-1.502799 51.434692 1.570755 -1.707280 0.624998 0.156347 0.000000 0.000000 0.000000 -4.934103 -2.645664 -1.427417 31.349783 6.092844 -0.991121 -25.764307 -5.534962 3.767342 -3.521967 9.154817 6.304141 -35.077557 15.321175 -40.818645 -18.564358 6.191274 3.555172 -16.584461 -1.610150 -5.594272 3.089181 -14.089146 8.026228 44.136028 -2.818661 -40.970253 12.201329 -10.154654 61.029346 -16.029964 -8.990028 -9.033713 -4.286408 8.308335 10.664139 13.928228 -1.241256 -11.301579 -2.367157 0.620404 -7.286765 0.427785 -5.011709 -13.496501 6.496695 1.343443 -2.189509 -3.393052 0.017112 -0.880230 
-1.540964 51.430424 1.406177 -1.738674 0.576172 -0.039061 0.000000 0.000000 0.000000 -4.253525 -2.792262 -1.290862 30.559206 5.868523 -0.833716 -25.487911 -5.378562 3.844199 -3.521967 9.154817 6.304141 -36.370743 14.451687 -39.675556 -19.054317 6.013414 -0.844351 -24.813324 -2.433938 -4.298254 3.089181 -14.089146 8.026228 46.539719 -1.793887 -41.687424 13.033510 -10.627216 56.815510 -16.892744 -8.970361 -9.060899 -4.470427 8.411635 10.724549 14.034385 -1.290225 -11.253120 -2.426216 0.633135 -7.166965 0.223469 -4.923864 -13.385992 6.518876 1.315140 -2.082218 -3.177792 -0.010333 -0.806473 
-1.535818 51.425209 1.205563 -1.751642 0.703116 -0.292947 0.000000 0.000000 0.000000 -3.402740 -2.919418 -1.066056 29.738945 6.005256 -0.814272 -25.033752 -5.455879 3.943252 -3.521967 9.154817 6.304141 -39.179203 12.958895 -38.334473 -19.716074 6.454397 0.165535 -27.466841 -3.786823 -3.500221 3.089181 -14.089146 8.026228 49.726547 -0.591304 -42.440540 13.892741 -11.163588 53.837841 -17.981657 -8.480539 -9.126177 -4.587721 8.275085 10.631276 13.847887 -1.321963 -10.886972 -2.078497 0.640797 -7.357369 -0.069219 -5.080990 -13.412809 6.536527 1.304679 -1.954816 -2.664700 -0.024977 -0.589703 
